<?xml version="1.0" standalone="no"?>
<!DOCTYPE svg PUBLIC "-//W3C//DTD SVG 20010904//EN"
 "http://www.w3.org/TR/2001/REC-SVG-20010904/DTD/svg10.dtd">
<svg version="1.0" xmlns="http://www.w3.org/2000/svg"
 width="600.000000pt" height="600.000000pt" viewBox="0 0 600.000000 600.000000"
 preserveAspectRatio="xMidYMid meet">
<g transform="translate(0.000000,600.000000) scale(0.100000,-0.100000)"
fill="#000000" stroke="none">
<path d="M2966 4545 c-34 -35 -27 -87 14 -100 12 -4 17 -11 14 -18 -4 -7 2 -3
13 9 34 34 44 60 34 87 -14 37 -49 47 -75 22z m41 -2 c-4 -3 1 -15 10 -25 16
-18 16 -20 -3 -39 -20 -19 -21 -19 -37 -1 -16 18 -16 20 4 45 11 15 23 27 26
27 4 0 3 -3 0 -7z"/>
<path d="M2722 4470 c-16 -27 -15 -75 3 -90 23 -19 72 21 73 60 1 47 -52 68
-76 30z m45 -8 c10 -6 9 -16 -5 -45 -23 -49 -32 -46 -32 8 0 45 10 54 37 37z"/>
<path d="M3261 4450 c-15 -11 -20 -25 -19 -53 2 -44 19 -64 38 -42 7 8 17 12
23 8 6 -3 7 -1 3 5 -3 6 0 14 7 19 20 12 28 63 10 63 -8 0 -12 4 -9 8 8 14
-33 8 -53 -8z m53 -22 c-28 -45 -52 -76 -56 -72 -3 2 0 22 6 44 8 32 15 40 34
40 16 0 21 -4 16 -12z"/>
<path d="M3104 4420 c-44 -18 -55 -80 -18 -105 29 -18 43 -13 69 25 11 17 23
30 27 30 3 0 -6 14 -20 30 -29 33 -28 32 -58 20z m36 -37 c0 -26 -25 -63 -42
-63 -15 0 -9 53 9 72 23 25 33 23 33 -9z"/>
<path d="M2853 4363 c5 -7 -2 -18 -17 -28 -38 -25 -39 -43 -5 -86 42 -53 57
-49 24 7 -26 43 -26 46 -9 65 26 29 34 23 35 -23 0 -24 4 -52 9 -63 7 -19 8
-19 14 5 11 40 -7 101 -34 119 -13 9 -21 11 -17 4z"/>
<path d="M2572 4310 c8 -29 14 -35 34 -35 37 2 50 20 35 47 -8 17 -21 23 -45
23 -32 0 -33 0 -24 -35z m48 5 c7 -9 10 -19 6 -22 -8 -9 -38 9 -44 25 -5 17
23 15 38 -3z"/>
<path d="M2966 4271 c-8 -9 -26 -40 -38 -69 l-23 -52 -25 24 c-23 21 -27 22
-52 9 -16 -7 -28 -18 -28 -24 0 -6 -5 -7 -11 -3 -8 4 -8 0 0 -15 15 -27 9 -74
-10 -79 -8 -2 -10 0 -4 5 17 14 16 33 -2 26 -12 -5 -14 -3 -8 7 5 8 4 11 -3 7
-5 -4 -8 -16 -5 -27 3 -12 0 -20 -7 -20 -13 0 -40 -25 -40 -37 0 -11 34 -40
77 -65 32 -20 36 -38 7 -38 -8 0 -14 -7 -14 -15 0 -9 6 -12 16 -8 15 5 15 3 0
-25 -17 -33 -21 -62 -8 -62 4 0 24 32 44 70 l37 70 -69 35 c-39 19 -70 40 -70
45 0 6 29 10 65 10 74 0 76 3 44 75 -11 25 -18 49 -15 52 3 3 27 -13 53 -35
26 -23 50 -38 54 -34 3 4 16 44 29 90 13 46 26 79 31 75 4 -4 14 -44 23 -87 9
-44 18 -81 20 -83 2 -3 33 10 67 28 41 21 58 34 47 37 -13 2 -17 12 -15 39 3
45 -20 63 -57 44 -14 -8 -23 -18 -19 -24 3 -5 0 -7 -8 -5 -8 3 -13 12 -13 21
1 9 -2 15 -6 12 -5 -3 -11 3 -15 14 -8 27 -30 33 -49 12z m140 -76 c-9 -7 -16
-17 -16 -24 0 -6 -5 -11 -11 -11 -13 0 -1 62 15 72 19 12 31 -24 12 -37z"/>
<path d="M3222 4237 c-12 -13 -22 -34 -22 -48 1 -23 2 -22 33 14 36 41 52 46
60 17 3 -14 -1 -21 -17 -26 -28 -9 -57 -34 -50 -45 3 -5 11 -6 17 -2 7 5 21 8
32 8 11 0 19 6 18 13 -2 6 3 12 11 12 8 0 16 7 20 15 3 8 0 15 -6 15 -6 0 -8
3 -5 7 11 11 -24 43 -48 43 -12 0 -31 -10 -43 -23z"/>
<path d="M2671 4211 c-13 -12 -20 -25 -15 -32 4 -8 3 -9 -4 -5 -7 4 -12 1 -12
-8 0 -9 3 -15 8 -15 19 3 33 -2 27 -11 -3 -5 1 -10 10 -10 9 0 13 -4 10 -10
-9 -15 8 -12 33 6 29 20 28 37 -6 75 l-27 30 -24 -20z m52 -45 c26 -40 7 -39
-52 0 -1 2 0 7 4 13 11 18 32 12 48 -13z"/>
<path d="M3138 4108 c-34 -45 -49 -76 -41 -81 5 -2 32 -10 61 -17 28 -6 54
-16 57 -20 3 -5 -21 -14 -52 -20 -32 -7 -61 -14 -65 -17 -4 -2 4 -29 18 -61
25 -58 60 -95 81 -87 20 7 23 -24 3 -35 -11 -6 -20 -21 -21 -33 0 -12 -3 -16
-6 -9 -2 6 -9 10 -14 6 -5 -3 -9 3 -9 12 0 10 -3 14 -7 11 -3 -4 -12 -2 -19 4
-7 6 -18 8 -23 5 -5 -4 6 -22 25 -40 28 -28 34 -39 28 -60 -3 -14 -9 -26 -14
-26 -17 0 -40 39 -40 68 0 19 -5 32 -12 32 -11 0 -14 -32 -9 -93 1 -4 7 -6 14
-5 6 2 11 -2 10 -9 -2 -8 4 -10 14 -6 9 4 14 2 10 -3 -3 -5 3 -10 13 -10 10 0
18 5 17 11 -1 5 4 9 12 7 8 -2 11 3 8 12 -3 8 1 17 9 20 8 3 14 2 14 -3 0 -4
7 -8 15 -8 9 0 15 10 15 23 0 16 -5 22 -14 18 -8 -3 -17 -1 -20 5 -4 5 4 13
15 16 20 7 20 8 6 17 -26 14 -20 31 8 24 19 -5 23 -3 19 9 -4 8 -1 15 5 15 6
0 11 -8 11 -17 0 -13 3 -14 12 -5 19 19 23 14 24 -34 1 -40 -1 -45 -18 -41
-18 5 -46 -28 -34 -41 3 -3 6 -2 6 2 0 4 9 2 20 -4 11 -6 20 -18 20 -26 0 -8
4 -13 9 -10 4 3 16 -3 26 -14 10 -11 23 -20 30 -20 14 0 57 -35 50 -41 -2 -3
8 -6 23 -7 15 0 44 -4 65 -8 37 -6 43 -16 39 -64 -1 -8 -2 -32 -3 -52 l-2 -38
-55 7 c-39 4 -53 3 -48 -5 3 -6 19 -10 34 -8 15 1 44 -6 64 -16 l38 -18 5 22
c2 13 9 66 15 120 5 53 13 103 16 112 3 9 2 16 -4 16 -6 0 -13 -13 -17 -29
l-6 -30 -52 16 c-59 17 -182 77 -192 93 -3 5 -11 10 -17 10 -7 0 -6 -6 2 -15
8 -9 8 -15 2 -15 -21 0 -19 42 4 68 1 2 32 -8 69 -23 56 -22 79 -26 154 -24
49 1 97 -3 109 -10 26 -14 32 -14 32 -1 0 6 -5 10 -12 10 -22 0 -80 53 -94 86
-59 141 67 297 207 255 81 -24 129 -90 129 -177 0 -81 -51 -152 -122 -169 -16
-4 -25 -11 -23 -16 3 -4 12 -6 21 -2 19 7 77 -55 112 -121 22 -42 26 -64 27
-128 0 -42 -2 -79 -5 -81 -3 -3 -17 -3 -31 0 -24 4 -27 10 -31 56 -3 35 -14
66 -33 95 -37 55 -45 45 -13 -15 41 -77 47 -163 11 -163 -12 0 -14 -8 -10 -36
5 -31 0 -45 -33 -94 -38 -56 -83 -100 -101 -100 -5 0 9 16 31 36 22 20 40 40
40 45 0 5 -11 16 -25 25 -34 22 -51 7 -59 -55 -4 -30 -14 -55 -28 -67 l-21
-19 19 35 c25 49 24 143 -3 195 -26 51 -47 69 -107 96 -128 56 -279 -31 -287
-166 -4 -80 1 -104 36 -155 19 -29 32 -56 29 -61 -3 -5 2 -6 10 -3 25 10 19
-5 -16 -36 -17 -16 -36 -26 -41 -23 -6 3 -7 1 -3 -5 4 -7 1 -12 -8 -12 -9 0
-16 -4 -16 -10 0 -5 -7 -10 -15 -10 -8 0 -15 -4 -15 -10 0 -5 -9 -10 -20 -10
-10 0 -23 -8 -29 -17 -5 -10 -12 -17 -15 -15 -12 5 -67 -29 -61 -38 3 -5 12
-7 20 -4 8 4 12 11 8 17 -4 6 -1 7 6 3 7 -5 46 13 94 44 45 29 73 42 62 30
-20 -22 -163 -111 -200 -123 -19 -7 -19 -6 -2 7 12 10 15 16 7 21 -6 4 -19 0
-28 -9 -10 -8 -26 -15 -37 -15 -11 0 -34 -2 -50 -4 -32 -4 -53 2 -100 32 -16
11 -39 20 -50 20 -17 1 -18 3 -5 12 13 9 13 10 -2 6 -9 -4 -34 7 -57 24 -23
16 -44 30 -48 30 -22 4 -32 12 -26 22 4 6 1 7 -6 2 -8 -4 -24 4 -42 21 -29 27
-40 52 -17 38 6 -4 8 -3 5 3 -4 6 5 20 18 33 57 54 70 165 28 246 -59 115
-222 137 -316 44 -21 -22 -40 -39 -43 -39 -2 -1 -12 -1 -23 -1 -12 0 -28 -19
-48 -60 l-30 -61 39 -34 c41 -38 37 -48 -5 -15 -41 32 -86 120 -80 153 3 16 0
39 -7 52 -18 34 -6 117 25 172 28 51 29 53 16 53 -18 0 -71 -122 -71 -162 0
-35 -2 -38 -29 -38 -26 0 -29 4 -35 43 -16 107 60 264 137 286 l32 8 -30 12
c-46 17 -57 25 -88 64 -57 69 -43 183 28 246 111 97 285 9 285 -145 0 -63 -37
-125 -87 -149 -21 -10 -33 -20 -26 -22 7 -3 22 1 35 8 12 7 54 11 93 10 64 -1
132 15 216 53 11 5 19 1 23 -11 9 -23 -17 -43 -128 -99 -99 -49 -136 -55 -136
-25 0 11 -4 23 -10 26 -13 8 -13 -6 0 -58 6 -23 14 -78 18 -122 7 -77 8 -80
31 -77 32 3 39 11 21 22 -9 6 -14 31 -15 84 -1 42 1 76 4 77 62 8 151 44 184
74 20 18 38 31 40 29 2 -2 4 3 4 11 0 20 -4 19 -39 -10 -34 -29 -90 -59 -128
-69 -14 -4 8 11 48 33 41 21 81 46 90 54 11 10 30 14 55 11 28 -3 37 -1 37 11
0 8 6 15 14 15 8 0 16 7 20 15 4 11 -1 15 -19 15 -20 0 -25 -5 -26 -27 0 -28
-1 -28 -11 -5 -8 15 -17 20 -28 17 -20 -6 -35 20 -19 31 6 3 8 17 5 30 -7 25
8 34 17 12 3 -7 6 -4 6 7 1 12 6 26 12 32 9 9 7 10 -10 6 -11 -3 -21 -9 -21
-14 0 -5 -6 -9 -14 -9 -8 0 -18 -9 -21 -20 -6 -19 -55 -52 -72 -48 -4 0 -21
-4 -38 -11 -16 -7 -38 -13 -47 -14 -10 -1 -18 -4 -18 -7 0 -3 -9 -6 -20 -6
-12 0 -19 5 -16 12 9 23 -6 23 -25 1 -22 -27 -24 -19 -4 19 23 44 28 87 16
131 -40 147 -181 202 -305 118 -20 -13 -36 -21 -36 -17 0 14 20 37 31 37 7 0
14 6 17 13 8 26 -37 -7 -53 -39 -9 -17 -21 -27 -27 -23 -7 4 -8 3 -4 -5 6 -9
11 -9 24 1 14 11 15 10 8 -7 -42 -101 -43 -151 -5 -214 11 -18 18 -36 14 -39
-16 -17 -55 83 -55 143 0 24 -4 46 -9 49 -16 11 -3 -109 18 -158 17 -39 25
-47 42 -43 13 4 24 -1 32 -14 6 -10 19 -19 27 -19 19 -1 -13 -21 -38 -24 -10
-2 -17 -7 -17 -12 0 -5 -10 -19 -22 -31 -13 -13 -23 -28 -23 -34 0 -5 -5 -7
-12 -3 -7 4 -8 3 -4 -5 4 -6 2 -18 -4 -26 -6 -8 -9 -19 -6 -24 4 -5 2 -12 -3
-15 -5 -3 -8 -42 -8 -85 0 -44 4 -78 8 -75 4 2 7 -14 6 -36 -2 -23 0 -43 4
-46 12 -7 20 65 9 85 -26 49 -3 186 40 241 16 19 14 12 -7 -35 -21 -47 -27
-74 -26 -125 1 -105 8 -174 17 -189 6 -9 1 -20 -15 -33 -14 -10 -17 -17 -9
-16 10 2 14 -4 12 -17 -16 -124 -17 -120 17 -144 17 -12 39 -21 48 -20 23 3
53 -10 53 -23 0 -12 56 -68 68 -68 18 0 25 -35 23 -121 -2 -62 2 -97 14 -125
27 -62 36 -107 22 -116 -9 -6 -9 -8 1 -8 6 0 12 -5 12 -11 0 -5 -4 -8 -9 -4
-6 3 -9 -10 -7 -32 1 -21 -1 -50 -5 -66 -6 -22 -2 -33 21 -59 16 -18 27 -34
24 -37 -6 -6 -30 22 -37 43 -2 6 -8 8 -12 4 -13 -12 21 -52 54 -65 30 -11 33
-10 43 13 7 16 14 20 18 13 5 -7 17 5 31 30 13 23 28 40 35 37 8 -3 10 3 6 16
-3 14 -1 19 6 14 8 -5 10 -2 6 9 -4 8 -1 22 5 29 8 10 9 16 1 21 -5 3 -10 10
-10 16 0 5 9 0 20 -11 11 -11 24 -20 28 -20 5 0 19 -9 32 -20 13 -11 20 -20
15 -20 -4 0 -2 -6 4 -13 6 -8 7 -18 3 -22 -4 -5 -1 -5 6 -1 11 7 17 -5 13 -27
-1 -5 3 -6 9 -2 5 3 10 1 10 -5 0 -7 9 -23 20 -37 11 -14 20 -23 20 -19 0 4 9
2 20 -4 11 -6 20 -7 20 -2 0 5 -10 14 -22 20 -22 10 -21 11 11 11 26 1 32 -2
27 -15 -5 -12 -1 -14 17 -8 36 11 44 33 42 108 -3 90 -18 144 -50 178 -14 15
-28 42 -32 59 -6 31 -6 31 28 24 19 -4 35 -11 37 -16 2 -5 15 -6 29 -3 20 5
24 4 18 -6 -6 -9 -4 -10 10 -3 17 10 49 6 103 -11 13 -4 22 -3 22 3 0 5 -8 12
-17 14 -17 4 -17 5 0 6 10 0 20 -6 24 -15 3 -9 9 -11 12 -6 3 5 26 12 50 15
29 4 40 2 30 -4 -7 -5 -25 -9 -38 -9 -13 0 -21 -3 -17 -7 10 -11 56 -11 50 -1
-3 4 2 9 10 9 16 1 28 4 44 9 4 1 11 2 16 1 15 -3 150 31 162 40 7 6 8 -6 4
-39 -8 -55 -19 -84 -30 -77 -4 2 -5 -7 -2 -22 3 -17 1 -24 -6 -19 -6 4 -11
-13 -14 -45 -1 -28 0 -53 5 -56 10 -6 9 -63 -1 -63 -4 0 -8 -9 -9 -20 -1 -11
1 -19 5 -17 4 1 9 -2 11 -8 16 -36 63 -49 108 -30 18 8 33 17 33 20 0 3 -4 3
-10 0 -5 -3 -10 -1 -10 5 0 6 7 13 15 16 8 3 17 14 20 25 4 11 11 16 17 13 7
-4 8 -2 4 5 -8 12 32 81 46 81 11 0 49 -71 43 -81 -4 -5 1 -6 9 -3 12 5 16 0
16 -19 0 -14 4 -29 10 -32 6 -4 7 1 3 11 -4 12 -3 15 5 10 16 -10 15 -33 0
-38 -7 -3 3 -5 22 -5 23 0 40 7 48 19 16 22 34 24 26 3 -4 -8 -11 -12 -17 -8
-6 3 -7 1 -3 -5 9 -15 36 -4 36 14 0 8 5 14 11 14 5 0 7 5 4 10 -3 6 -1 10 6
10 7 0 8 4 2 13 -9 12 -9 164 0 222 3 17 12 47 21 67 17 39 20 106 10 171 -12
68 -22 38 -17 -50 3 -49 0 -99 -5 -113 -8 -19 -10 -3 -10 71 0 53 -3 105 -6
115 -4 15 2 23 26 33 18 8 41 24 53 36 11 12 27 20 35 18 12 -4 12 -3 2 5 -11
7 -8 14 14 31 23 18 30 20 39 9 5 -8 18 -12 28 -10 9 2 17 -2 17 -8 0 -17 21
8 44 52 11 20 23 35 28 32 10 -7 2 74 -11 109 -9 23 -7 33 10 57 12 15 19 32
16 37 -3 5 0 38 7 74 16 76 17 91 10 147 -3 23 -9 40 -14 37 -4 -3 -11 2 -14
11 -3 8 -2 12 4 9 43 -26 -42 74 -95 111 l-29 22 40 44 c51 55 68 105 61 170
-11 94 -71 154 -165 165 -115 13 -199 -55 -217 -179 -5 -36 -2 -56 14 -93 25
-57 26 -61 6 -45 -11 9 -19 9 -28 2 -18 -16 -148 18 -181 46 -11 10 -16 12
-13 5 4 -6 2 -13 -5 -15 -18 -6 85 -47 144 -57 37 -6 43 -9 22 -10 -32 -1
-100 17 -153 40 -22 10 -29 19 -26 31 3 9 1 19 -5 23 -6 3 -8 10 -5 15 5 9
-18 32 -31 29 -21 -3 -35 2 -29 11 3 6 1 10 -4 10 -6 0 -11 -5 -11 -10 0 -6
-10 -2 -22 10 -12 11 -25 20 -30 20 -4 0 -8 5 -8 10 0 15 26 12 40 -5 16 -19
27 -19 27 -1 0 8 -3 14 -6 14 -3 -1 -14 2 -23 6 -10 4 -23 6 -30 4 -7 -3 -18
2 -25 11 -16 20 -16 34 -1 25 7 -4 8 -3 4 5 -4 6 0 14 8 17 9 3 13 10 11 15
-3 5 6 11 21 15 19 5 22 9 12 15 -10 6 -10 9 0 9 24 0 13 38 -13 44 -14 4 -23
11 -20 16 3 5 -6 12 -20 16 -26 6 -30 24 -7 32 7 2 12 -4 12 -13 0 -9 4 -14 9
-11 5 3 7 15 4 26 -3 11 -9 18 -13 15 -4 -2 -5 7 -2 20 6 33 -1 31 -30 -7z
m-493 -407 c-13 -13 -159 -61 -182 -60 -10 0 16 10 57 23 41 13 86 28 100 34
32 14 36 14 25 3z m775 -129 c47 -23 78 -42 70 -42 -19 0 -129 52 -155 75 -25
21 -19 18 85 -33z m511 -67 c2 2 5 -6 6 -18 0 -12 7 -44 13 -71 9 -37 9 -62 1
-104 -6 -30 -11 -70 -11 -88 0 -38 -9 -64 -21 -64 -6 0 -6 7 -1 18 11 21 25
150 23 212 -1 25 -13 70 -26 100 -20 44 -21 51 -6 33 10 -12 20 -20 22 -18z
m-370 -87 c-4 -87 -9 -84 -13 6 -2 46 1 71 6 66 5 -5 8 -38 7 -72z m-1134 -40
c-2 -18 -4 -6 -4 27 0 33 2 48 4 33 2 -15 2 -42 0 -60z m1123 -88 c70 -50 102
-137 80 -215 -14 -51 -77 -125 -105 -125 -8 0 -15 -4 -15 -10 0 -17 17 -12
101 30 78 40 148 99 201 170 22 30 27 33 41 21 15 -12 14 -17 -8 -60 -29 -59
-83 -131 -143 -193 -47 -49 -62 -52 -62 -15 0 15 -3 18 -11 10 -8 -8 -8 -22 0
-49 25 -89 25 -185 1 -274 -31 -114 -35 -161 -17 -213 16 -48 13 -58 -20 -76
-33 -17 -46 -14 -40 12 4 15 -3 33 -24 57 -29 35 -41 31 -14 -4 8 -11 15 -24
15 -29 0 -5 -8 1 -18 14 -23 30 -36 63 -21 53 7 -4 9 4 6 25 -3 17 -1 29 4 25
5 -3 9 -1 9 5 0 6 19 28 42 51 23 22 38 40 33 40 -6 0 -46 -19 -89 -43 -91
-48 -134 -95 -151 -164 -12 -47 -13 -48 -55 -51 -47 -4 -75 12 -50 28 11 7 15
29 15 87 0 67 4 85 28 125 22 39 27 58 27 115 0 66 1 69 30 86 17 10 30 22 30
28 0 14 -4 12 -67 -26 -57 -34 -195 -85 -233 -85 -16 0 -39 36 -28 44 1 2 41
23 88 47 54 28 110 69 156 112 44 42 83 69 98 71 41 4 39 12 -4 25 -114 34
-162 178 -97 293 50 90 182 119 267 58z m-976 -23 c106 -60 116 -246 17 -316
-16 -12 -38 -21 -49 -21 -12 0 -24 -4 -27 -10 -3 -6 4 -10 16 -10 13 0 50 -27
95 -69 54 -52 96 -81 161 -112 48 -23 90 -43 91 -44 10 -9 -12 -45 -27 -45
-37 0 -140 33 -205 66 -75 38 -112 42 -53 5 35 -21 37 -25 37 -75 0 -45 5 -60
33 -97 51 -66 57 -82 57 -149 0 -45 4 -62 15 -66 8 -4 15 -13 15 -21 0 -11
-11 -13 -46 -11 -45 3 -46 4 -65 53 -22 59 -72 107 -138 131 -25 9 -65 25 -88
35 -24 10 -43 15 -43 12 0 -3 18 -23 40 -44 22 -21 40 -43 40 -49 0 -19 -27
-64 -54 -89 -14 -14 -26 -35 -26 -48 0 -29 -11 -29 -39 1 -25 26 -25 38 0 124
10 38 9 55 -10 133 -24 98 -28 206 -11 283 7 34 8 52 0 60 -7 7 -10 2 -10 -17
0 -15 -4 -27 -9 -27 -21 0 -125 131 -162 205 -37 73 -39 81 -23 92 14 10 21 5
54 -46 21 -32 49 -66 61 -75 108 -78 187 -122 198 -110 3 4 0 9 -7 11 -27 10
-74 57 -92 94 -46 90 -4 215 85 255 47 21 124 17 169 -9z m1306 -9 c0 6 5 12
11 12 6 0 8 -9 4 -22 -5 -21 -5 -21 9 2 15 25 15 25 12 -13 -4 -45 -30 -69
-62 -57 -12 5 -24 20 -26 33 -3 17 -1 24 8 20 7 -2 15 5 19 18 6 17 9 19 16 8
6 -10 9 -11 9 -1z m-1767 -28 c8 -11 16 -17 19 -15 3 3 3 -5 1 -19 -6 -27 -40
-41 -60 -24 -7 6 -13 26 -13 44 0 27 4 34 19 34 11 0 26 -9 34 -20z m176 -74
c-11 -45 -9 -100 6 -141 6 -14 5 -17 -2 -10 -24 23 -34 81 -23 131 13 62 19
78 26 72 3 -3 0 -27 -7 -52z m1630 -80 c7 -27 10 -51 7 -53 -4 -4 -14 28 -29
92 -4 15 -5 13 -6 -7 0 -15 4 -48 11 -72 11 -40 10 -47 -7 -66 -10 -11 -27
-20 -37 -20 -16 0 -19 5 -13 29 10 46 -11 45 -43 -1 -32 -46 -112 -127 -112
-114 0 4 29 39 64 77 35 38 76 94 92 126 44 89 54 90 73 9z m-1818 -13 c23
-51 24 -89 4 -97 -27 -10 -61 83 -35 99 6 3 10 12 10 18 0 7 -4 6 -10 -3 -11
-17 -13 -5 -3 30 4 16 8 19 11 10 2 -8 12 -34 23 -57z m1616 50 c0 -23 -16
-45 -28 -37 -15 9 -10 24 9 25 10 0 12 3 4 6 -6 2 -10 9 -6 14 9 15 21 10 21
-8z m-1498 -215 c24 -27 40 -48 34 -48 -18 0 -123 126 -123 146 0 5 11 -4 23
-21 12 -16 41 -51 66 -77z m486 -70 c3 4 5 1 3 -7 -3 -15 130 -93 148 -87 6 2
11 -2 11 -10 0 -8 -2 -14 -5 -14 -14 0 -163 86 -192 111 l-35 30 31 -15 c17
-8 35 -12 39 -8z m-421 -122 c0 -65 -3 -108 -7 -100 -11 19 -10 230 1 219 2
-2 5 -56 6 -119z m742 -20 c1 -7 5 -23 8 -34 5 -15 1 -24 -13 -31 -34 -19 -46
-13 -45 19 2 48 3 50 25 50 13 0 18 4 13 13 -4 6 -3 8 1 4 5 -4 10 -14 11 -21z
m-70 -62 c-4 -10 -14 -10 -37 -4 -41 12 -41 13 -30 43 14 37 43 39 59 3 7 -16
10 -35 8 -42z m324 60 c0 -13 -114 -55 -162 -59 -50 -4 -50 -4 -13 4 22 5 69
21 105 34 36 14 66 26 68 26 1 1 2 -1 2 -5z m-470 -54 l45 -8 -38 -1 c-38 -1
-143 31 -161 49 -6 6 16 1 49 -11 33 -11 80 -24 105 -29z m-80 -146 c7 -19 9
-42 7 -51 -3 -12 -5 -9 -6 8 0 14 -11 41 -24 60 -39 57 -41 65 -14 40 15 -13
31 -39 37 -57z m909 22 c-6 -26 -9 -72 -6 -104 4 -42 3 -52 -4 -39 -15 25 -14
116 1 161 17 52 23 39 9 -18z m-1334 -117 c-10 -24 -13 -26 -9 -9 3 14 9 50
12 80 l7 55 3 -46 c2 -27 -3 -61 -13 -80z m240 46 c23 -13 50 -36 60 -52 20
-30 38 -96 24 -87 -5 3 -9 13 -9 22 0 31 -40 82 -87 112 -56 36 -47 40 12 5z
m875 -21 c-17 -20 -36 -48 -41 -61 -5 -14 -12 -23 -15 -20 -9 9 43 94 64 106
27 16 26 13 -8 -25z m-969 -41 c-5 -10 -22 -29 -37 -43 -30 -26 -20 -8 20 38
23 26 30 28 17 5z m859 -113 c21 -7 19 -8 -17 -9 -23 -1 -45 4 -48 9 -7 12 29
12 65 0z"/>
<path d="M3280 4123 c-14 -9 -28 -22 -32 -27 -11 -16 -10 -58 1 -52 5 3 11 -1
15 -9 6 -16 33 -19 61 -9 13 5 14 8 3 15 -10 7 -9 9 5 9 20 0 22 11 5 29 -11
11 -10 13 2 7 12 -6 12 -5 -1 6 -8 7 -20 21 -25 30 -9 17 -11 17 -34 1z m25
-69 c-26 -19 -32 -18 -38 12 -3 19 0 27 17 34 31 11 48 -26 21 -46z"/>
<path d="M2535 4068 c-18 -20 -24 -33 -17 -36 7 -2 10 -7 7 -11 -2 -5 11 -16
30 -27 34 -18 35 -18 58 4 27 26 28 53 2 82 -26 28 -47 25 -80 -12z m70 -8
c18 -20 18 -21 -1 -40 -19 -18 -19 -18 -42 0 -22 18 -22 20 -5 39 22 26 25 26
48 1z"/>
<path d="M3755 4020 c3 -5 15 -10 26 -10 11 0 30 -5 42 -11 19 -9 18 -7 -3 10
-25 21 -76 29 -65 11z"/>
<path d="M2163 4003 c-13 -2 -23 -9 -23 -14 0 -6 9 -7 23 -3 12 4 40 11 62 15
l40 6 -40 0 c-22 0 -50 -2 -62 -4z"/>
<path d="M3850 3993 c0 -3 14 -19 32 -36 72 -73 84 -163 34 -253 -22 -40 -23
-44 -8 -56 15 -12 16 -11 3 5 -7 9 -9 17 -5 17 13 0 42 71 50 119 7 46 -19
136 -44 151 -9 5 -13 10 -7 10 5 0 -1 7 -13 16 -12 8 -20 19 -18 23 3 4 -1 8
-9 8 -8 0 -15 -2 -15 -4z"/>
<path d="M2656 3928 c-18 -26 -21 -48 -5 -48 5 0 7 -5 3 -12 -5 -7 -3 -8 6 -3
10 6 12 4 7 -7 -5 -13 -1 -14 23 -5 16 6 27 15 24 19 -3 4 -1 8 4 8 5 0 17 11
26 25 14 21 14 24 1 19 -9 -4 -15 0 -15 8 0 24 -57 21 -74 -4z m74 -14 c0 -10
-33 -33 -47 -34 -7 0 -13 9 -13 20 0 16 7 20 30 20 17 0 30 -3 30 -6z"/>
<path d="M3221 3932 c-22 -7 1 -22 35 -22 30 0 34 -3 34 -25 0 -30 0 -30 -45
-4 -28 17 -39 19 -48 10 -9 -9 -8 -11 7 -5 13 5 17 4 13 -3 -4 -6 7 -16 23
-23 16 -7 27 -17 24 -22 -3 -5 3 -4 13 3 11 6 25 20 31 30 22 35 -39 77 -87
61z"/>
<path d="M2875 3849 c-22 -17 -49 -37 -60 -45 -16 -11 -17 -16 -6 -26 8 -8 11
-8 8 -2 -5 8 2 11 17 10 17 -1 21 -5 15 -12 -6 -7 -3 -20 10 -35 l18 -23 25
27 25 27 23 -30 23 -29 27 22 c15 12 27 24 27 27 -1 3 2 15 7 28 5 16 15 22
37 22 17 0 28 -4 25 -9 -3 -5 1 -12 10 -15 10 -4 13 -2 8 7 -6 9 -5 9 7 1 11
-9 17 -9 27 2 10 12 10 14 -2 14 -8 0 -38 14 -67 30 -28 17 -52 30 -54 28 -1
-2 -10 -34 -20 -71 -10 -37 -21 -70 -25 -72 -4 -2 -18 32 -31 75 -13 44 -26
80 -29 80 -3 0 -23 -14 -45 -31z m25 -83 c0 -20 -19 -31 -32 -18 -6 6 -7 15
-4 21 10 16 36 13 36 -3z"/>
<path d="M3590 3850 c-15 -28 -1 -49 17 -25 15 22 17 45 3 45 -5 0 -14 -9 -20
-20z"/>
<path d="M2350 3843 c0 -23 17 -49 26 -41 9 10 -4 58 -16 58 -6 0 -10 -8 -10
-17z"/>
<path d="M3711 3818 c-10 -25 1 -44 18 -34 14 9 14 56 1 56 -6 0 -15 -10 -19
-22z"/>
<path d="M2235 3820 c-7 -12 12 -50 25 -50 11 0 13 21 4 44 -7 18 -20 21 -29
6z"/>
<path d="M3518 3811 c-4 -13 -2 -34 3 -48 5 -14 7 -28 4 -33 -3 -4 3 -14 12
-21 15 -12 16 -12 9 6 -5 11 -11 43 -15 70 -5 39 -8 45 -13 26z"/>
<path d="M2720 3759 c0 -16 4 -19 20 -14 22 7 27 -4 9 -22 -7 -7 -1 -14 21
-22 28 -9 31 -9 20 4 -6 8 -9 18 -6 23 7 12 -31 52 -49 52 -8 0 -15 -9 -15
-21z"/>
<path d="M3592 3758 c3 -7 16 -20 31 -28 22 -12 29 -12 51 -1 32 18 24 34 -9
19 -20 -9 -28 -8 -43 5 -22 20 -35 22 -30 5z"/>
<path d="M2354 3739 c-4 -7 -21 -9 -40 -6 -39 7 -47 -9 -10 -19 31 -7 62 2 70
21 6 17 -10 20 -20 4z"/>
<path d="M2874 3637 c-12 -12 -24 -30 -27 -40 -9 -26 22 -55 58 -54 17 0 25 2
18 4 -8 3 -7 12 4 32 15 25 15 29 -2 54 -21 32 -24 32 -51 4z m36 -26 c0 -37
-19 -59 -40 -46 -7 4 27 85 36 85 2 0 4 -18 4 -39z"/>
<path d="M3318 3333 c-12 -13 -17 -23 -11 -23 6 0 14 7 17 16 3 8 9 13 13 11
5 -2 24 2 43 9 l35 13 -38 -2 c-25 -1 -45 -9 -59 -24z"/>
<path d="M3660 3220 c0 -5 9 -12 21 -15 19 -6 19 -8 5 -24 -22 -24 -20 -27 12
-25 17 1 33 -6 45 -20 16 -20 16 -19 0 25 -13 38 -23 49 -50 57 -18 6 -33 6
-33 2z"/>
<path d="M2697 3163 c-10 -10 -8 -34 7 -68 13 -30 13 -30 11 18 -2 49 -7 62
-18 50z"/>
<path d="M3209 3143 c-4 -52 -2 -90 5 -85 5 3 6 -2 3 -12 -5 -11 -3 -15 5 -10
7 5 9 -2 5 -22 -3 -16 -4 -24 -1 -17 3 8 15 2 32 -16 15 -15 22 -20 15 -11
-24 31 -54 110 -55 145 -1 31 -7 49 -9 28z"/>
<path d="M2690 3060 c0 -14 -6 -37 -14 -52 -13 -24 -12 -26 3 -25 12 1 16 7
14 18 -3 9 0 26 5 36 7 12 7 25 1 34 -7 11 -9 8 -9 -11z"/>
<path d="M2136 1988 c3 -4 -2 -8 -11 -8 -9 0 -34 -18 -56 -41 -21 -22 -44 -37
-49 -34 -6 4 -10 3 -9 -2 4 -21 -2 -33 -16 -33 -10 0 -15 10 -15 30 0 18 -8
37 -19 47 -11 9 -18 20 -16 24 3 4 -2 10 -11 13 -10 4 -13 2 -8 -7 6 -9 4 -9
-7 -1 -24 18 -72 7 -97 -23 -22 -27 -23 -33 -21 -228 1 -186 3 -202 22 -222
11 -13 29 -23 39 -23 11 0 16 -4 13 -10 -3 -5 -2 -10 4 -10 5 0 13 5 16 11 4
6 13 8 20 5 22 -8 58 41 62 86 7 71 17 77 48 27 15 -24 34 -48 41 -52 8 -4 14
-15 14 -23 0 -8 5 -12 10 -9 6 3 10 1 10 -4 0 -6 7 -11 16 -11 8 0 13 -4 10
-9 -3 -5 5 -11 18 -13 27 -5 86 16 98 35 12 18 10 77 -3 77 -5 0 -8 4 -4 9 3
5 -2 17 -11 25 -8 9 -12 16 -8 16 4 0 -3 9 -16 20 -13 11 -20 20 -16 20 4 0
-4 10 -18 23 -45 42 -42 66 14 124 l49 53 21 -22 c11 -12 20 -28 20 -35 0 -7
5 -13 10 -13 6 0 10 -5 10 -11 0 -6 9 -24 21 -40 11 -16 17 -29 12 -29 -4 0 1
-7 11 -15 11 -8 16 -15 12 -15 -5 0 -2 -7 5 -16 7 -9 16 -48 20 -87 5 -56 11
-74 29 -89 12 -10 18 -19 14 -19 -5 -1 9 -5 31 -8 34 -6 44 -3 69 21 24 22 29
36 32 85 4 63 21 116 35 107 5 -3 9 -2 8 3 -4 15 13 43 22 37 5 -3 7 1 4 8 -6
17 53 120 65 113 4 -3 9 -75 9 -161 2 -156 9 -194 36 -194 8 0 15 -4 15 -9 0
-5 10 -7 22 -3 15 4 19 2 13 -7 -13 -21 32 -3 59 24 13 13 22 34 21 49 0 14 2
26 5 26 3 0 4 19 1 42 -3 39 -2 41 13 29 9 -8 14 -21 11 -29 -5 -13 -3 -13 12
-1 10 8 14 9 10 2 -5 -7 0 -16 11 -22 11 -6 25 -24 32 -41 7 -16 17 -30 22
-30 5 0 6 -4 3 -10 -3 -5 1 -10 10 -10 9 0 14 -4 11 -9 -4 -5 4 -7 16 -3 13 3
19 1 15 -5 -11 -17 75 -10 96 7 9 8 17 20 17 28 0 7 5 10 11 6 9 -5 10 1 5 20
-4 16 -2 26 4 26 6 0 9 4 6 9 -4 5 -7 89 -9 186 l-2 177 -35 29 c-19 16 -36
26 -38 21 -1 -5 -15 -7 -31 -4 -23 3 -30 -1 -36 -18 -5 -16 -10 -19 -15 -11
-9 16 -20 -36 -20 -95 0 -29 -4 -44 -13 -44 -17 0 -49 39 -42 50 4 6 2 10 -3
10 -6 0 -23 20 -38 44 -16 25 -32 42 -36 40 -5 -3 -11 1 -14 10 -8 20 -87 15
-112 -7 -20 -18 -57 -24 -47 -7 3 6 -6 15 -22 21 -38 16 -73 20 -73 8 0 -5 -3
-8 -7 -7 -10 4 -53 -39 -53 -52 0 -5 -13 -30 -29 -56 l-30 -46 -26 42 c-14 22
-31 52 -37 66 -6 13 -22 27 -35 30 -13 4 -23 9 -23 14 0 4 -18 7 -40 7 -21 0
-37 -4 -34 -9 3 -4 -2 -8 -11 -8 -9 0 -13 -4 -10 -10 3 -5 1 -10 -4 -10 -6 0
-11 3 -11 8 0 9 -58 35 -82 37 -9 1 -15 -2 -12 -7z m-201 -45 c15 -14 16 -30
11 -102 l-7 -86 68 75 c109 121 120 130 147 130 32 0 70 -35 59 -55 -5 -8 -37
-43 -71 -79 -42 -43 -61 -70 -56 -78 4 -7 33 -47 64 -88 81 -106 86 -117 64
-141 -20 -22 -63 -25 -86 -6 -9 6 -39 46 -69 87 -29 41 -54 77 -56 79 -2 3
-17 -9 -34 -25 -28 -26 -30 -33 -24 -75 8 -54 -10 -79 -55 -79 -57 0 -60 12
-60 230 0 167 2 201 16 214 20 21 68 20 89 -1z m467 -83 c29 -55 55 -100 58
-100 3 0 28 44 56 98 46 88 53 97 82 100 34 3 72 -12 72 -30 0 -14 -129 -246
-141 -253 -5 -4 -9 -39 -9 -79 0 -81 -9 -96 -56 -96 -49 0 -63 20 -58 84 4 53
2 59 -76 195 -44 76 -80 142 -80 144 0 17 36 37 65 37 33 0 36 -4 87 -100z
m413 94 c8 -4 55 -63 102 -133 47 -69 89 -130 93 -134 4 -5 7 50 6 123 -1 141
2 150 54 150 50 0 51 -2 51 -225 1 -191 -1 -210 -18 -223 -15 -11 -78 -11 -88
0 -1 2 -39 55 -83 118 -45 63 -87 123 -94 133 -11 16 -13 -3 -13 -114 l0 -133
-27 -10 c-19 -7 -35 -6 -53 2 l-25 12 0 209 c0 189 2 211 18 220 20 12 53 14
77 5z"/>
<path d="M3232 1984 c-18 -7 -31 -18 -27 -24 3 -6 0 -13 -8 -16 -16 -6 -16 -9
-16 -211 -1 -163 5 -208 32 -237 19 -20 31 -24 66 -22 28 2 47 9 53 20 5 9 13
14 18 11 4 -3 9 59 10 138 2 78 4 158 6 177 1 19 3 39 3 45 1 5 8 -1 17 -13
11 -16 25 -22 55 -22 23 0 42 -5 44 -12 9 -22 13 -80 14 -189 1 -96 3 -108 24
-131 12 -13 28 -23 35 -20 7 2 12 -2 12 -10 0 -11 2 -11 9 0 4 8 11 13 15 12
17 -6 63 10 65 22 1 7 7 81 13 163 6 89 15 153 22 157 6 4 24 8 39 8 16 0 37
5 48 10 18 10 19 6 19 -139 0 -158 8 -200 40 -208 11 -3 17 -9 14 -15 -3 -5 6
-6 22 -2 21 5 25 4 19 -6 -5 -8 -4 -11 2 -7 5 3 66 7 136 8 69 2 124 6 121 11
-3 4 1 8 9 8 23 0 43 33 41 68 -4 52 -36 71 -121 72 -39 0 -75 5 -78 10 -4 6
11 10 38 10 56 0 105 17 117 40 16 30 12 65 -10 85 -11 10 -17 22 -14 26 3 5
0 9 -6 9 -7 0 -6 5 2 14 7 8 16 12 19 10 3 -2 16 10 28 27 27 36 22 76 -13
106 -20 18 -38 20 -161 21 -117 0 -143 -3 -171 -19 -21 -12 -34 -14 -34 -7 0
6 -3 8 -7 5 -3 -4 -12 -2 -20 5 -21 17 -354 23 -364 6 -5 -7 -13 -14 -19 -14
-5 -1 -15 -2 -21 -3 -5 0 -7 -6 -3 -13 4 -6 -4 -3 -18 8 -14 10 -23 23 -20 28
3 5 -1 6 -8 1 -7 -4 -16 -2 -21 6 -7 12 -9 12 -9 0 0 -10 -4 -11 -12 -3 -9 7
-23 6 -46 -4z m87 -38 c8 -9 11 -77 9 -222 l-3 -209 -26 -9 c-14 -5 -38 -6
-53 -2 l-26 6 0 219 c0 166 3 221 13 224 25 11 75 7 86 -7z m452 -2 c6 -7 9
-28 7 -46 l-3 -33 -67 -3 -68 -3 0 -167 c0 -183 -3 -192 -55 -192 -52 0 -55 9
-55 192 l0 167 -67 3 -68 3 -3 35 c-6 57 9 61 200 59 123 -1 171 -5 179 -15z
m390 -6 c12 -19 11 -52 -3 -66 -8 -8 -48 -12 -115 -12 l-103 0 0 -40 0 -40 94
0 c76 0 95 -3 100 -16 10 -25 7 -62 -5 -70 -6 -3 -51 -6 -100 -5 l-89 2 0 -45
0 -45 113 -3 112 -3 3 -33 c6 -58 -5 -62 -159 -62 -191 0 -179 -15 -179 234 0
243 -14 226 183 221 103 -2 142 -7 148 -17z"/>
</g>
</svg>
