<?xml version="1.0" standalone="no"?>
<svg xmlns="http://www.w3.org/2000/svg" width="280" height="80" viewBox="0 0 280 80">
  <!-- Dark background -->
  <rect width="80" height="80" rx="12" ry="12" fill="#13ec92"/>

  <!-- Logo icon from logo-colorized.svg -->
  <svg x="0" y="0" width="80" height="80" viewBox="145 115 220 270">
    <g transform="translate(0,500) scale(0.1,-0.1)" stroke="none">
      <!-- Figures (primary brand color) -->
      <g fill="#10221a">
        <path d="M2477 3437 c-15 -12 -29 -29 -31 -37 -7 -34 -52 -136 -63 -143 -8 -5 -128 -20 -165 -21 -10 0 -18 -4 -18 -9 0 -4 -4 -6 -9 -3 -10 6 -23 -18 -26 -46 -3 -20 15 -39 78 -88 25 -19 50 -43 56 -53 18 -27 -4 -93 -37 -114 -15 -10 -32 -22 -37 -28 -12 -12 -56 -106 -56 -120 0 -5 -6 -17 -13 -25 -6 -8 -18 -28 -26 -45 -23 -47 -50 -60 -50 -25 0 27 -40 108 -70 143 -71 83 -193 105 -298 55 -49 -23 -130 -102 -134 -132 -2 -22 -5 -31 -13 -49 -11 -26 1 -126 20 -164 8 -17 31 -48 50 -69 19 -21 35 -39 35 -39 0 -1 -24 -27 -52 -57 -72 -75 -80 -86 -72 -100 5 -7 3 -8 -6 -3 -10 6 -12 4 -7 -8 3 -9 2 -16 -4 -14 -5 1 -27 -36 -48 -83 -81 -178 -89 -233 -42 -281 16 -16 39 -29 52 -29 35 0 86 37 104 78 47 104 42 97 48 70 6 -27 4 -76 -9 -243 -13 -177 -11 -211 16 -240 13 -13 38 -29 56 -35 29 -10 39 -8 75 12 45 25 65 56 74 114 4 22 8 48 10 59 2 11 4 27 4 36 1 9 7 16 15 16 9 0 16 -17 20 -46 17 -124 64 -191 134 -191 43 0 88 35 98 77 8 28 0 241 -19 551 -7 105 -9 192 -5 192 4 0 15 15 24 33 9 17 20 34 23 37 13 10 80 117 104 165 65 128 111 255 94 255 -8 0 -7 4 3 10 8 5 11 10 5 10 -5 1 4 7 20 14 17 7 37 20 45 27 48 46 87 43 164 -11 24 -16 45 -28 47 -25 2 2 5 -15 6 -37 1 -44 41 -158 54 -158 5 0 9 -7 9 -16 0 -18 41 -97 53 -102 4 -2 7 -10 7 -18 0 -8 5 -14 11 -14 5 0 7 -4 4 -10 -3 -5 -2 -10 3 -10 5 0 18 -17 27 -37 15 -32 35 -62 73 -107 7 -9 3 -136 -18 -502 -7 -122 -10 -232 -6 -245 12 -47 41 -71 89 -76 38 -4 52 -1 80 22 35 26 42 40 52 111 8 55 25 104 35 104 5 0 7 -7 4 -15 -4 -8 -1 -15 6 -15 6 0 9 -4 6 -8 -6 -10 16 -98 35 -142 16 -36 83 -72 116 -64 13 4 20 11 16 17 -3 5 -1 7 5 3 6 -3 23 5 39 20 l28 26 -3 122 c-2 66 -7 161 -11 210 -5 49 -5 100 -2 114 7 24 9 21 34 -32 51 -106 107 -132 169 -78 27 25 31 35 30 74 -3 60 -63 212 -130 323 -39 64 -48 76 -96 115 -41 33 -42 45 -6 70 48 34 78 104 78 180 -1 36 -6 79 -12 97 -14 40 -71 108 -112 133 -50 32 -169 45 -210 24 -14 -8 -32 -14 -39 -14 -28 0 -105 -93 -127 -154 -13 -33 -22 -65 -20 -71 1 -5 -7 1 -19 15 -23 27 -71 116 -75 139 -2 8 -13 28 -25 44 -12 16 -15 26 -8 22 8 -4 0 6 -17 23 -16 16 -40 32 -51 36 -13 4 -21 15 -21 29 0 12 -2 32 -5 43 -4 17 11 36 74 93 43 40 78 77 76 84 -2 12 -27 41 -36 43 -3 0 -13 4 -21 7 -8 4 -47 8 -86 10 -83 3 -96 13 -120 84 -17 53 -61 133 -72 133 -4 0 -20 -10 -35 -23z"/>
              </g>
      <!-- Star (golden, scaled 1.5x from center) -->
      <g fill="#D4A84B" transform="translate(2550, 3250) scale(1.3) translate(-2550, -3250)">
        <path fill="#D4A84B" stroke="#D4A84B" stroke-width="80" stroke-linejoin="round" d="M2516 3413 c3 -10 21 -60 41 -110 l35 -93 46 0 c87 0 182 -13 182 -24 -1 -6 -24 -28 -53 -49 -29 -21 -67 -50 -85 -66 l-32 -28 25 -104 c14 -57 25 -107 25 -111 0 -16 -21 -6 -102 47 -45 30 -88 55 -94 55 -6 0 -50 -25 -99 -55 -85 -54 -105 -63 -105 -47 0 4 10 43 21 87 35 132 36 129 -58 199 -45 34 -82 66 -82 73 -1 7 37 13 114 18 67 4 118 12 123 19 7 12 34 82 59 159 17 49 30 59 39 30z"/>
      </g>
    </g>
  </svg>

  <!-- KYNITE text in primary brand color -->
  <text x="92" y="52" font-family="Lexend, Arial, sans-serif" font-size="36" font-weight="700" fill="#13ec92">KYNITE</text>
</svg>
