<?xml version="1.0" standalone="no"?>
<svg xmlns="http://www.w3.org/2000/svg" width="400" height="400" viewBox="0 0 400 400">
<!-- Dark rounded rectangle background (matches original logo.png) -->
<rect width="400" height="400" rx="60" ry="60" fill="#10221a"/>

<!-- Logo content from logo-colorized.svg, scaled to fit -->
<svg x="40" y="55" width="320" height="290" viewBox="130 100 250 300">
<g transform="translate(0,500) scale(0.1,-0.1)">

<!-- FIGURES: Solid green silhouettes -->
<g fill="#13ec92" stroke="none">
<path d="M2477 3437 c-15 -12 -29 -29 -31 -37 -7 -34 -52 -136 -63 -143 -8 -5
-128 -20 -165 -21 -10 0 -18 -4 -18 -9 0 -4 -4 -6 -9 -3 -10 6 -23 -18 -26
-46 -3 -20 15 -39 78 -88 25 -19 50 -43 56 -53 18 -27 -4 -93 -37 -114 -15
-10 -32 -22 -37 -28 -12 -12 -56 -106 -56 -120 0 -5 -6 -17 -13 -25 -6 -8 -18
-28 -26 -45 -23 -47 -50 -60 -50 -25 0 27 -40 108 -70 143 -71 83 -193 105
-298 55 -49 -23 -130 -102 -134 -132 -2 -22 -5 -31 -13 -49 -11 -26 1 -126 20
-164 8 -17 31 -48 50 -69 19 -21 35 -39 35 -39 0 -1 -24 -27 -52 -57 -72 -75
-80 -86 -72 -100 5 -7 3 -8 -6 -3 -10 6 -12 4 -7 -8 3 -9 2 -16 -4 -14 -5 1
-27 -36 -48 -83 -81 -178 -89 -233 -42 -281 16 -16 39 -29 52 -29 35 0 86 37
104 78 47 104 42 97 48 70 6 -27 4 -76 -9 -243 -13 -177 -11 -211 16 -240 13
-13 38 -29 56 -35 29 -10 39 -8 75 12 45 25 65 56 74 114 4 22 8 48 10 59 2
11 4 27 4 36 1 9 7 16 15 16 9 0 16 -17 20 -46 17 -124 64 -191 134 -191 43 0
88 35 98 77 8 28 0 241 -19 551 -7 105 -9 192 -5 192 4 0 15 15 24 33 9 17 20
34 23 37 13 10 80 117 104 165 65 128 111 255 94 255 -8 0 -7 4 3 10 8 5 11
10 5 10 -5 1 4 7 20 14 17 7 37 20 45 27 48 46 87 43 164 -11 24 -16 45 -28
47 -25 2 2 5 -15 6 -37 1 -44 41 -158 54 -158 5 0 9 -7 9 -16 0 -18 41 -97 53
-102 4 -2 7 -10 7 -18 0 -8 5 -14 11 -14 5 0 7 -4 4 -10 -3 -5 -2 -10 3 -10 5
0 18 -17 27 -37 15 -32 35 -62 73 -107 7 -9 3 -136 -18 -502 -7 -122 -10 -232
-6 -245 12 -47 41 -71 89 -76 38 -4 52 -1 80 22 35 26 42 40 52 111 8 55 25
104 35 104 5 0 7 -7 4 -15 -4 -8 -1 -15 6 -15 6 0 9 -4 6 -8 -6 -10 16 -98 35
-142 16 -36 83 -72 116 -64 13 4 20 11 16 17 -3 5 -1 7 5 3 6 -3 23 5 39 20
l28 26 -3 122 c-2 66 -7 161 -11 210 -5 49 -5 100 -2 114 7 24 9 21 34 -32 51
-106 107 -132 169 -78 27 25 31 35 30 74 -3 60 -63 212 -130 323 -39 64 -48
76 -96 115 -41 33 -42 45 -6 70 48 34 78 104 78 180 -1 36 -6 79 -12 97 -14
40 -71 108 -112 133 -50 32 -169 45 -210 24 -14 -8 -32 -14 -39 -14 -28 0
-105 -93 -127 -154 -13 -33 -22 -65 -20 -71 1 -5 -7 1 -19 15 -23 27 -71 116
-75 139 -2 8 -13 28 -25 44 -12 16 -15 26 -8 22 8 -4 0 6 -17 23 -16 16 -40
32 -51 36 -13 4 -21 15 -21 29 0 12 -2 32 -5 43 -4 17 11 36 74 93 43 40 78
77 76 84 -2 12 -27 41 -36 43 -3 0 -13 4 -21 7 -8 4 -47 8 -86 10 -83 3 -96
13 -120 84 -17 53 -61 133 -72 133 -4 0 -20 -10 -35 -23z"/>
<path d="M2048 3138 c-34 -12 -46 -54 -21 -74 10 -7 20 -14 23 -14 3 0 11 -4
19 -9 11 -7 10 -14 -5 -39 -14 -25 -16 -36 -6 -56 18 -40 52 -42 110 -6 57 35
72 62 47 86 -13 13 -29 15 -73 11 -31 -3 -50 -3 -40 0 9 2 21 17 28 33 10 25
9 31 -9 49 -12 12 -21 18 -21 15 0 -4 -6 -2 -12 3 -8 7 -23 7 -40 1z"/>
<path d="M2800 3037 c-14 -7 -26 -21 -28 -31 -5 -23 38 -64 58 -58 8 3 12 1 8
-3 -10 -10 37 -35 66 -35 22 0 48 31 53 64 5 28 -23 53 -65 61 -20 3 -44 8
-52 10 -8 3 -26 -1 -40 -8z"/>
<path d="M2477 2813 c-8 -10 -18 -39 -22 -64 -9 -60 6 -89 45 -89 40 0 53 28
45 93 -10 76 -34 97 -68 60z"/>
</g>

<!-- STAR + SPARKLES: Gold filled -->
<g fill="#D4A84B" stroke="none">
<path d="M2766 3503 c-3 -10 -16 -30 -30 -44 -27 -29 -51 -70 -48 -81 1 -5 -3
-8 -9 -8 -5 0 -7 -4 -4 -10 3 -5 2 -10 -3 -10 -14 0 -3 -37 14 -51 18 -15 64
7 115 53 78 72 86 123 25 152 -43 20 -53 20 -60 -1z"/>
<path d="M2325 3496 c-20 -15 -33 -62 -13 -50 6 4 8 3 5 -3 -7 -11 36 -63 52
-63 15 0 41 42 41 65 -1 24 -33 65 -52 65 -8 0 -23 -6 -33 -14z"/>
<path fill="#D4A84B" stroke="#D4A84B" stroke-width="56" stroke-linejoin="round" d="M2176 3476 c-42 -38 -34 -68 30 -123 62 -53 94 -70 94 -49 0 12 -37
47 -113 108 -21 16 -21 17 -3 37 11 12 24 21 30 21 17 -1 101 -142 99 -165 -2
-17 -1 -17 11 4 10 18 11 32 3 57 -6 18 -14 31 -19 28 -4 -3 -8 4 -8 15 0 23
-63 91 -85 91 -8 0 -25 -11 -39 -24z"/>
<path d="M2855 3370 c-47 -18 -64 -73 -30 -96 29 -19 58 -11 84 22 19 24 19
28 5 49 -19 29 -33 35 -59 25z"/>
<path fill="#D4A84B" stroke="#D4A84B" stroke-width="80" stroke-linejoin="round" d="M2516 3413 c3 -10 21 -60 41 -110 l35 -93 46 0 c87 0 182 -13 182 -24 -1 -6 -24 -28 -53 -49 -29
-21 -67 -50 -85 -66 l-32 -28 25 -104 c14 -57 25 -107 25 -111 0 -16 -21 -6
-102 47 -45 30 -88 55 -94 55 -6 0 -50 -25 -99 -55 -85 -54 -105 -63 -105 -47
0 4 10 43 21 87 35 132 36 129 -58 199 -45 34 -82 66 -82 73 -1 7 37 13 114
18 67 4 118 12 123 19 7 12 34 82 59 159 17 49 30 59 39 30z"/>
</g>

</g>
</svg>
</svg>
