<?xml version="1.0" standalone="no"?>
<svg xmlns="http://www.w3.org/2000/svg" width="64" height="64" viewBox="0 0 64 64">
<!-- Dark background for visibility -->
<rect width="64" height="64" rx="12" ry="12" fill="#10221a"/>
<!-- Star + sparkles from logo-colorized.svg -->
<svg x="4" y="4" width="56" height="56" viewBox="130 100 250 300">
<g transform="translate(0,500) scale(0.1,-0.1)">
<g fill="#D4A84B" stroke="none">
<path d="M2766 3503 c-3 -10 -16 -30 -30 -44 -27 -29 -51 -70 -48 -81 1 -5 -3
-8 -9 -8 -5 0 -7 -4 -4 -10 3 -5 2 -10 -3 -10 -14 0 -3 -37 14 -51 18 -15 64
7 115 53 78 72 86 123 25 152 -43 20 -53 20 -60 -1z"/>
<path d="M2325 3496 c-20 -15 -33 -62 -13 -50 6 4 8 3 5 -3 -7 -11 36 -63 52
-63 15 0 41 42 41 65 -1 24 -33 65 -52 65 -8 0 -23 -6 -33 -14z"/>
<path fill="#D4A84B" stroke="#D4A84B" stroke-width="56" stroke-linejoin="round" d="M2176 3476 c-42 -38 -34 -68 30 -123 62 -53 94 -70 94 -49 0 12 -37
47 -113 108 -21 16 -21 17 -3 37 11 12 24 21 30 21 17 -1 101 -142 99 -165 -2
-17 -1 -17 11 4 10 18 11 32 3 57 -6 18 -14 31 -19 28 -4 -3 -8 4 -8 15 0 23
-63 91 -85 91 -8 0 -25 -11 -39 -24z"/>
<path d="M2855 3370 c-47 -18 -64 -73 -30 -96 29 -19 58 -11 84 22 19 24 19
28 5 49 -19 29 -33 35 -59 25z"/>
<path fill="#D4A84B" stroke="#D4A84B" stroke-width="80" stroke-linejoin="round" d="M2516 3413 c3 -10 21 -60 41 -110 l35 -93 46 0 c87 0 182 -13 182 -24 -1 -6 -24 -28 -53 -49 -29
-21 -67 -50 -85 -66 l-32 -28 25 -104 c14 -57 25 -107 25 -111 0 -16 -21 -6
-102 47 -45 30 -88 55 -94 55 -6 0 -50 -25 -99 -55 -85 -54 -105 -63 -105 -47
0 4 10 43 21 87 35 132 36 129 -58 199 -45 34 -82 66 -82 73 -1 7 37 13 114
18 67 4 118 12 123 19 7 12 34 82 59 159 17 49 30 59 39 30z"/>
</g>
</g>
</svg>
</svg>
