<?xml version="1.0" standalone="no"?>
<!DOCTYPE svg PUBLIC "-//W3C//DTD SVG 20010904//EN"
 "http://www.w3.org/TR/2001/REC-SVG-20010904/DTD/svg10.dtd">
<svg version="1.0" xmlns="http://www.w3.org/2000/svg"
 width="500.000000pt" height="500.000000pt" viewBox="0 0 500.000000 500.000000"
 preserveAspectRatio="xMidYMid meet">
<g transform="translate(0.000000,500.000000) scale(0.100000,-0.100000)"
fill="#000000" stroke="none">
<path d="M1655 4050 c-154 -18 -292 -82 -438 -203 -100 -83 -196 -237 -244
-392 l-27 -90 -1 -915 c0 -721 3 -928 13 -975 7 -33 34 -103 59 -155 84 -173
240 -300 430 -352 77 -20 92 -21 1053 -20 664 0 991 4 1025 12 193 42 369 179
456 356 75 149 72 113 76 1034 5 1015 2 1062 -87 1245 -101 211 -297 373 -527
437 -77 22 -88 22 -903 24 -454 1 -852 -2 -885 -6z m1650 -40 c132 -11 259
-51 324 -101 13 -10 28 -16 34 -12 6 3 7 1 3 -5 -4 -7 -2 -12 4 -12 6 0 17 -6
24 -12 33 -32 66 -57 66 -51 0 4 8 -3 18 -16 9 -13 36 -42 59 -65 22 -23 48
-57 57 -76 9 -19 23 -46 31 -60 36 -64 53 -112 71 -195 18 -85 19 -144 19
-985 0 -945 2 -894 -39 -1025 -14 -45 -30 -75 -39 -75 -6 0 -8 -3 -4 -6 3 -3
-7 -24 -23 -46 -99 -137 -217 -222 -365 -264 -55 -15 -147 -17 -1025 -17 -531
0 -981 3 -1000 5 -90 14 -228 71 -277 113 -52 45 -132 125 -126 125 5 0 3 4
-4 8 -28 18 -98 169 -117 255 -4 15 -7 440 -7 945 l0 917 26 88 c27 95 84 216
117 251 11 11 27 32 36 46 10 14 27 33 40 43 12 10 20 23 17 28 -4 5 2 6 11 2
12 -4 15 -3 10 5 -4 7 -1 12 8 12 8 0 16 3 18 8 6 13 72 59 128 87 30 16 61
33 68 39 12 9 26 12 70 18 6 1 12 5 12 9 0 4 10 7 23 7 12 0 58 5 102 10 96
11 1502 13 1630 2z"/>
<path d="M2766 3503 c-3 -10 -16 -30 -30 -44 -27 -29 -51 -70 -48 -81 1 -5 -3
-8 -9 -8 -5 0 -7 -4 -4 -10 3 -5 2 -10 -3 -10 -14 0 -3 -37 14 -51 18 -15 64
7 115 53 78 72 86 123 25 152 -43 20 -53 20 -60 -1z m56 -30 c10 -9 18 -20 18
-25 0 -9 -40 -48 -119 -115 -38 -34 -37 -11 2 46 19 28 41 64 48 81 16 34 25
37 51 13z"/>
<path d="M2325 3496 c-20 -15 -33 -62 -13 -50 6 4 8 3 5 -3 -7 -11 36 -63 52
-63 15 0 41 42 41 65 -1 24 -33 65 -52 65 -8 0 -23 -6 -33 -14z m45 -20 c0 -7
3 -28 6 -45 9 -43 -11 -40 -32 5 -15 30 -15 37 -3 45 20 12 29 11 29 -5z"/>
<path d="M2176 3476 c-42 -38 -34 -68 30 -123 62 -53 94 -70 94 -49 0 12 -37
47 -113 108 -21 16 -21 17 -3 37 11 12 24 21 30 21 17 -1 101 -142 99 -165 -2
-17 -1 -17 11 4 10 18 11 32 3 57 -6 18 -14 31 -19 28 -4 -3 -8 4 -8 15 0 23
-63 91 -85 91 -8 0 -25 -11 -39 -24z"/>
<path d="M2477 3437 c-15 -12 -29 -29 -31 -37 -7 -34 -52 -136 -63 -143 -8 -5
-128 -20 -165 -21 -10 0 -18 -4 -18 -9 0 -4 -4 -6 -9 -3 -10 6 -23 -18 -26
-46 -3 -20 15 -39 78 -88 25 -19 50 -43 56 -53 18 -27 -4 -93 -37 -114 -15
-10 -32 -22 -37 -28 -12 -12 -56 -106 -56 -120 0 -5 -6 -17 -13 -25 -6 -8 -18
-28 -26 -45 -23 -47 -50 -60 -50 -25 0 27 -40 108 -70 143 -71 83 -193 105
-298 55 -49 -23 -130 -102 -134 -132 -2 -22 -5 -31 -13 -49 -11 -26 1 -126 20
-164 8 -17 31 -48 50 -69 19 -21 35 -39 35 -39 0 -1 -24 -27 -52 -57 -72 -75
-80 -86 -72 -100 5 -7 3 -8 -6 -3 -10 6 -12 4 -7 -8 3 -9 2 -16 -4 -14 -5 1
-27 -36 -48 -83 -81 -178 -89 -233 -42 -281 16 -16 39 -29 52 -29 35 0 86 37
104 78 47 104 42 97 48 70 6 -27 4 -76 -9 -243 -13 -177 -11 -211 16 -240 13
-13 38 -29 56 -35 29 -10 39 -8 75 12 45 25 65 56 74 114 4 22 8 48 10 59 2
11 4 27 4 36 1 9 7 16 15 16 9 0 16 -17 20 -46 17 -124 64 -191 134 -191 43 0
88 35 98 77 8 28 0 241 -19 551 -7 105 -9 192 -5 192 4 0 15 15 24 33 9 17 20
34 23 37 13 10 80 117 104 165 65 128 111 255 94 255 -8 0 -7 4 3 10 8 5 11
10 5 10 -5 1 4 7 20 14 17 7 37 20 45 27 48 46 87 43 164 -11 24 -16 45 -28
47 -25 2 2 5 -15 6 -37 1 -44 41 -158 54 -158 5 0 9 -7 9 -16 0 -18 41 -97 53
-102 4 -2 7 -10 7 -18 0 -8 5 -14 11 -14 5 0 7 -4 4 -10 -3 -5 -2 -10 3 -10 5
0 18 -17 27 -37 15 -32 35 -62 73 -107 7 -9 3 -136 -18 -502 -7 -122 -10 -232
-6 -245 12 -47 41 -71 89 -76 38 -4 52 -1 80 22 35 26 42 40 52 111 8 55 25
104 35 104 5 0 7 -7 4 -15 -4 -8 -1 -15 6 -15 6 0 9 -4 6 -8 -6 -10 16 -98 35
-142 16 -36 83 -72 116 -64 13 4 20 11 16 17 -3 5 -1 7 5 3 6 -3 23 5 39 20
l28 26 -3 122 c-2 66 -7 161 -11 210 -5 49 -5 100 -2 114 7 24 9 21 34 -32 51
-106 107 -132 169 -78 27 25 31 35 30 74 -3 60 -63 212 -130 323 -39 64 -48
76 -96 115 -41 33 -42 45 -6 70 48 34 78 104 78 180 -1 36 -6 79 -12 97 -14
40 -71 108 -112 133 -50 32 -169 45 -210 24 -14 -8 -32 -14 -39 -14 -28 0
-105 -93 -127 -154 -13 -33 -22 -65 -20 -71 1 -5 -7 1 -19 15 -23 27 -71 116
-75 139 -2 8 -13 28 -25 44 -12 16 -15 26 -8 22 8 -4 0 6 -17 23 -16 16 -40
32 -51 36 -13 4 -21 15 -21 29 0 12 -2 32 -5 43 -4 17 11 36 74 93 43 40 78
77 76 84 -2 12 -27 41 -36 43 -3 0 -13 4 -21 7 -8 4 -47 8 -86 10 -83 3 -96
13 -120 84 -17 53 -61 133 -72 133 -4 0 -20 -10 -35 -23z m39 -24 c3 -10 21
-60 41 -110 l35 -93 46 0 c87 0 182 -13 182 -24 -1 -6 -24 -28 -53 -49 -29
-21 -67 -50 -85 -66 l-32 -28 25 -104 c14 -57 25 -107 25 -111 0 -16 -21 -6
-102 47 -45 30 -88 55 -94 55 -6 0 -50 -25 -99 -55 -85 -54 -105 -63 -105 -47
0 4 10 43 21 87 35 132 36 129 -58 199 -45 34 -82 66 -82 73 -1 7 37 13 114
18 67 4 118 12 123 19 7 12 34 82 59 159 17 49 30 59 39 30z m-232 -535 c-15
-48 -8 -77 21 -84 29 -7 29 -10 -12 -109 -41 -99 -100 -206 -153 -280 -28 -38
-55 -81 -60 -94 -10 -23 -6 -145 20 -561 13 -205 13 -196 -12 -220 -28 -26
-67 -25 -99 3 -24 19 -29 38 -49 157 -27 170 -27 170 -51 170 -10 0 -19 -2
-19 -4 0 -2 -14 -71 -31 -153 -25 -124 -34 -152 -55 -170 -32 -29 -73 -29
-103 -2 -27 26 -27 15 13 592 2 26 0 47 -4 47 -13 0 -42 -49 -100 -165 l-55
-110 -40 0 c-34 0 -41 4 -49 28 -11 30 -6 50 52 187 42 97 106 202 148 242 16
15 51 37 78 49 l49 21 -33 15 c-83 35 -150 125 -150 203 0 43 32 121 64 157
69 78 201 95 286 37 124 -83 140 -243 34 -349 -30 -30 -32 -35 -15 -35 52 0
239 262 265 371 6 30 43 79 57 79 6 0 7 -9 3 -22z m467 1 c4 -8 30 -62 57
-121 28 -59 65 -128 82 -155 47 -69 131 -153 154 -153 16 0 13 6 -18 38 -48
47 -66 91 -66 158 0 90 42 158 123 199 121 60 247 13 303 -113 30 -67 30 -120
0 -180 -28 -56 -62 -89 -113 -112 l-38 -18 45 -19 c97 -43 166 -141 254 -365
31 -78 32 -108 8 -138 -16 -19 -23 -21 -48 -13 -30 10 -32 13 -104 162 -42 87
-76 137 -83 124 -2 -4 0 -57 4 -118 21 -308 29 -433 29 -467 0 -72 -72 -103
-124 -52 -14 15 -26 30 -26 33 0 7 -44 222 -55 269 -3 13 -13 22 -24 22 -22 0
-23 -4 -46 -155 -24 -152 -31 -171 -65 -185 -37 -15 -76 -6 -94 23 -12 18 -13
48 -6 172 33 561 33 582 10 620 -12 20 -27 41 -34 48 -43 45 -147 240 -185
347 -18 51 -18 55 -3 59 35 7 44 23 37 69 -5 33 -3 43 6 40 7 -2 16 -11 20
-19z"/>
<path d="M2855 3370 c-47 -18 -64 -73 -30 -96 29 -19 58 -11 84 22 19 24 19
28 5 49 -19 29 -33 35 -59 25z m39 -37 c9 -22 -2 -31 -44 -39 l-35 -7 29 32
c34 35 41 38 50 14z"/>
<path d="M2048 3138 c-34 -12 -46 -54 -21 -74 10 -7 20 -14 23 -14 3 0 11 -4
19 -9 11 -7 10 -14 -5 -39 -14 -25 -16 -36 -6 -56 18 -40 52 -42 110 -6 57 35
72 62 47 86 -13 13 -29 15 -73 11 -31 -3 -50 -3 -40 0 9 2 21 17 28 33 10 25
9 31 -9 49 -12 12 -21 18 -21 15 0 -4 -6 -2 -12 3 -8 7 -23 7 -40 1z m39 -30
c15 -7 30 -14 33 -16 9 -7 -26 -22 -52 -22 -23 0 -28 4 -28 25 0 28 7 30 47
13z m123 -102 c0 -17 -104 -71 -119 -61 -22 13 -12 44 17 50 15 3 41 10 57 14
43 13 45 13 45 -3z"/>
<path d="M2800 3037 c-14 -7 -26 -21 -28 -31 -5 -23 38 -64 58 -58 8 3 12 1 8
-3 -10 -10 37 -35 66 -35 22 0 48 31 53 64 5 28 -23 53 -65 61 -20 3 -44 8
-52 10 -8 3 -26 -1 -40 -8z m83 -34 c41 -5 47 -9 47 -30 0 -36 -23 -38 -81 -6
-57 31 -80 61 -38 49 13 -3 45 -9 72 -13z"/>
<path d="M2477 2813 c-8 -10 -18 -39 -22 -64 -9 -60 6 -89 45 -89 40 0 53 28
45 93 -10 76 -34 97 -68 60z m52 -125 c1 -5 -10 -8 -23 -8 -14 0 -27 3 -29 8
-4 5 14 108 23 132 2 4 28 -114 29 -132z"/>
</g>
</svg>
